<svg width="15" height="12" viewBox="0 0 15 12" fill="none" xmlns="http://www.w3.org/2000/svg">
<path d="M1.12496 0H13.875C14.0628 0 14.243 0.0702379 14.3758 0.195262C14.5087 0.320286 14.5833 0.489856 14.5833 0.666667V11.3333C14.5833 11.5101 14.5087 11.6797 14.3758 11.8047C14.243 11.9298 14.0628 12 13.875 12H1.12496C0.937098 12 0.75693 11.9298 0.624092 11.8047C0.491254 11.6797 0.416626 11.5101 0.416626 11.3333V0.666667C0.416626 0.489856 0.491254 0.320286 0.624092 0.195262C0.75693 0.0702379 0.937098 0 1.12496 0ZM13.1666 2.82533L7.55096 7.55867L1.83329 2.81067V10.6667H13.1666V2.82533ZM2.19525 1.33333L7.54317 5.77467L12.8139 1.33333H2.19525Z" fill="#EE748F"/>
</svg>
